   <svg width="14" height="18" viewBox="0 0 14 18" fill="none" xmlns="http://www.w3.org/2000/svg">
                  <path d="M2.8335 1.50002V2.33335C2.8335 3.25383 3.57969 4.00002 4.50016 4.00002H9.50016C10.4207 4.00002 11.1668 3.25383 11.1668 2.33335V1.50002H12.0002C12.9207 1.50002 13.6668 2.24621 13.6668 3.16669V12.3334C13.6668 15.0948 11.4282 17.3334 8.66683 17.3334H2.00016C1.07969 17.3334 0.333496 16.5872 0.333496 15.6667V3.16669C0.333496 2.24621 1.07969 1.50002 2.00016 1.50002H2.8335ZM7.00016 10.6667H4.50016C4.03993 10.6667 3.66683 11.0398 3.66683 11.5C3.66683 11.9603 4.03993 12.3334 4.50016 12.3334H7.00016C7.46041 12.3334 7.8335 11.9603 7.8335 11.5C7.8335 11.0398 7.46041 10.6667 7.00016 10.6667ZM9.50016 7.33335H4.50016C4.03993 7.33335 3.66683
               7.70644 3.66683 8.16669C3.66683 8.59406 3.98853 8.94628 4.40298 8.99441L4.50016 9.00002H9.50016C9.96041 9.00002 10.3335 8.62694 10.3335 8.16669C10.3335 7.70644 9.96041 7.33335 9.50016 7.33335ZM8.66683 0.666687C9.12708 0.666687 9.50016 1.03979 9.50016 1.50002C9.50016 1.92738 9.17847 2.27961 8.76402 2.32775L8.66683 2.33335H5.3335C4.87326 2.33335 4.50016 1.96025 4.50016 1.50002C4.50016 1.07266 4.82187 0.720431 5.23631 0.672293L5.3335 0.666687H8.66683Z" fill='#A3B3BC'
                  />
                </svg>