  <svg width="18" height="16" viewBox="0 0 18 16" fill="none" xmlns="http://www.w3.org/2000/svg">
              <path fillRule="evenodd" clipRule="evenodd" d="M7.30382 0.340678C6.99641 0.119403 6.56282 0.0159193 6.1364 0.171944C5.222 0.506503 4.3832 0.996328 3.65175 1.609C3.30419 1.90013 3.17707 2.3267 3.21479 2.70326C3.27761 3.33059 3.16689 3.9363 2.86545 4.45839C2.56388 4.98074 2.09437 5.37963 1.51929 5.63887C1.17366 5.79468 0.867121 6.11894 0.789429 6.56675C0.708562 7.033 0.666504 7.51192 0.666504 8.00009C0.666504 8.48817 0.708562 8.96717 0.789437 9.43334C0.867129 9.88117 1.17367 10.2054 1.5193 10.3613C2.09437 10.6205 2.56388 11.0194 2.86545 11.5418C3.16688 12.0638 3.2776
             12.6695 3.21479 13.2968C3.17708 13.6734 3.3042 14.1 3.65175 14.3911C4.38319 15.0038 5.22196 15.4936 6.13632 15.8281C6.56277
             15.9842 6.99638 15.8807 7.30379 15.6593C7.816 15.2907 8.39642 15.0833 8.99984 15.0833C9.60325 15.0833 10.1837 15.2907 10.6959 15.6593C11.0033 15.8807 11.4369 15.9842 11.8633 15.8281C12.7777 15.4936 13.6164 15.0038 14.3478 14.3912C14.6954 14.1 14.8225 13.6734 14.7848 13.2968C14.722 12.6695 14.8327 12.0638 15.1341 11.5418C15.4357 11.0194 15.9053 10.6205 16.4803 10.3613C16.826 10.2054 17.1326 9.88117
              17.2103 9.43334C17.2911 8.96717 17.3332 8.48817 17.3332 8.00009C17.3332 7.512 17.2911 7.03309 17.2103 6.56692C17.1326 6.11907 16.826 5.79479 16.4803 5.63899C15.9053 5.37974 15.4357 4.98085 15.1341 4.4585C14.8327 3.93639 14.722 3.33064 14.7848 2.70327C14.8226 2.32669 14.6954 1.90009 14.3478 1.60894C13.6164 0.996303 12.7777 0.506494 11.8633 0.171944C11.4368 0.0159277 11.0033 0.119403 10.6958 0.340678C10.1837 0.709361 9.60325 0.916694 8.99984 0.916694C8.39642 0.916694 7.816 0.709361 7.30382 0.340678ZM6.49984 8C6.49984 6.61925 7.61909 5.5 8.99984 5.5C10.3806 5.5 11.4998 6.61925 11.4998 8C11.4998 9.38075 10.3806 10.5 8.99984 10.5C7.61909 10.5 6.49984 9.38075 6.49984 8Z" fill= 'white'
              />
            </svg>