<svg width="32" height="32" viewBox="0 0 32 32" fill="none" xmlns="http://www.w3.org/2000/svg">
<g clip-path="url(#clip0_1_460)">
<path d="M24.7111 5.66721C25.015 6.40224 25.5984 6.98649 26.333 7.29151L28.9087 8.35843C29.6438 8.66292 30.2278 9.24694 30.5323 9.98202C30.8368 10.7171 30.8368 11.543 30.5323 12.2781L29.4662 14.8521C29.1615 15.5875 29.1611 16.4142 29.4671 17.1493L30.5314 19.7224C30.6824 20.0865 30.7601 20.4768 30.7602 20.8709C30.7602 21.265 30.6826 21.6553 30.5318 22.0194C30.381 22.3836 30.1599 22.7144 29.8811 22.993C29.6024 23.2717 29.2715 23.4927 28.9073 23.6434L26.3334 24.7096C25.5984 25.0135 25.0141 25.5968 24.7091 26.3314L23.6422 28.9072C23.3377 29.6423 22.7537 30.2263 22.0186 30.5308C21.2835 30.8353 20.4576 30.8353 19.7225 30.5308L17.1485 29.4646C16.4134 29.1609 15.5878 29.1615 14.8532 29.4663L12.2774 30.5317C11.5427 30.8355 10.7175 30.8353 9.98301 30.531C9.24852 30.2268 8.66483 29.6435 8.36014 28.9092L7.2929 26.3326C6.98898 25.5976 6.4056 25.0133 5.67103 24.7083L3.09526 23.6414C2.36049 23.337 1.77665 22.7534 1.47205 22.0187C1.16746 21.2841 1.16704 20.4585 1.4709 19.7236L2.53706 17.1496C2.84079 16.4145 2.84017 15.5889 2.53533 14.8542L1.47071 12.2766C1.31977 11.9125 1.24204 11.5223 1.24198 11.1282C1.24192 10.734 1.31951 10.3438 1.47034 9.97962C1.62117 9.6155 1.84226 9.28466 2.121 9.00601C2.39973 8.72737 2.73064 8.50638 3.09482 8.35567L5.66875 7.28951C6.40313 6.98586 6.98703 6.40322 7.29228 5.6695L8.35921 3.09372C8.66369 2.35864 9.24771 1.77461 9.98279 1.47013C10.7179 1.16565 11.5438 1.16565 12.2789 1.47013L14.8528 2.53629C15.5879 2.84002 16.4136 2.8394 17.1482 2.53456L19.7251 1.47178C20.4601 1.16747 21.2858 1.16754 22.0208 1.47196C22.7557 1.77638 23.3396 2.36023 23.6442 3.09513L24.7114 5.67167L24.7111 5.66721Z" fill="#0788F5"/>
<path fill-rule="evenodd" clip-rule="evenodd" d="M22.2665 11.8058C22.4803 11.4701 22.5519 11.0631 22.4656 10.6746C22.3794 10.286 22.1423 9.94759 21.8065 9.73383C21.4708 9.52006 21.0638 9.44843 20.6753 9.5347C20.2867 9.62097 19.9483 9.85806 19.7345 10.1938L13.8605 19.4238L11.1725 16.0638C10.924 15.753 10.5622 15.5536 10.1667 15.5095C9.77118 15.4655 9.37436 15.5803 9.06352 15.8288C8.75269 16.0773 8.55331 16.4391 8.50923 16.8347C8.46516 17.2302 8.58001 17.627 8.82852 17.9378L12.8285 22.9378C12.9776 23.1244 13.1691 23.2727 13.387 23.3703C13.6049 23.468 13.843 23.5122 14.0815 23.4993C14.32 23.4864 14.5519 23.4167 14.758 23.2961C14.9641 23.1755 15.1385 23.0074 15.2665 22.8058L22.2665 11.8058Z" fill="white"/>
</g>
<defs>
<clipPath id="clip0_1_460">
<rect width="32" height="32" fill="white"/>
</clipPath>
</defs>
</svg>
